<?xml version="1.0" standalone="no"?>
<!DOCTYPE svg PUBLIC "-//W3C//DTD SVG 20010904//EN"
 "http://www.w3.org/TR/2001/REC-SVG-20010904/DTD/svg10.dtd">
<svg version="1.0" xmlns="http://www.w3.org/2000/svg"
 width="327.000000pt" height="327.000000pt" viewBox="0 0 327.000000 327.000000"
 preserveAspectRatio="xMidYMid meet">
<metadata>
Created by potrace 1.14, written by Peter Selinger 2001-2017
</metadata>
<g transform="translate(0.000000,327.000000) scale(0.100000,-0.100000)"
fill="#000000" stroke="none">
<path d="M1460 3224 c-690 -88 -1232 -566 -1375 -1214 -67 -304 -55 -590 37
-864 154 -459 530 -839 978 -990 41 -14 129 -37 195 -52 107 -25 140 -27 315
-28 144 -1 218 4 285 16 335 63 607 207 845 447 231 232 359 469 427 790 25
113 27 146 27 326 0 168 -4 216 -22 302 -33 152 -76 273 -148 414 -268 521
-783 842 -1374 854 -85 2 -171 1 -190 -1z m378 -75 c547 -60 1013 -442 1187
-973 58 -177 69 -250 69 -466 1 -219 -11 -297 -70 -478 -179 -549 -618 -943
-1184 -1063 -131 -28 -363 -29 -516 -4 -268 45 -531 177 -731 368 -109 105
-118 117 -99 143 13 17 20 12 103 -66 161 -153 295 -242 466 -309 142 -55 243
-80 382 -92 192 -18 379 5 578 72 495 165 873 601 988 1138 29 135 36 375 15
501 -32 197 -104 389 -208 558 -67 108 -261 308 -370 381 -571 380 -1286 301
-1795 -198 -407 -399 -554 -1021 -366 -1554 24 -67 26 -79 13 -87 -23 -15 -33
-8 -57 42 -87 179 -120 542 -73 798 89 491 405 916 843 1137 253 127 552 182
825 152z m431 -668 c13 -24 31 -175 31 -261 0 -36 -6 -90 -14 -120 -13 -48
-13 -57 0 -71 8 -8 14 -26 14 -39 0 -59 -84 -84 -116 -35 -13 20 -25 25 -58
25 -46 0 -106 31 -106 55 0 12 9 14 53 9 47 -6 57 -3 81 18 34 29 44 78 35
168 -3 36 -7 56 -8 45 -3 -45 -24 -98 -49 -125 -57 -62 -146 -35 -189 57 -12
27 -12 26 -7 -17 4 -25 13 -57 20 -72 15 -30 12 -34 -38 -48 -39 -12 -66 2
-83 43 -12 29 -14 30 -21 12 -24 -68 -36 -85 -64 -100 -85 -44 -173 37 -173
157 0 102 75 188 165 188 20 0 40 -4 43 -10 12 -19 22 -10 17 15 -4 24 -2 25
47 25 50 0 52 -1 67 -37 l16 -36 17 39 c35 78 127 128 183 100 27 -14 28 -13
28 10 0 22 4 24 50 24 38 0 52 -4 59 -19z m-730 -185 c7 -8 18 -70 25 -138 7
-67 18 -133 24 -145 16 -29 16 -29 -17 -43 -74 -30 -109 9 -120 134 -5 47 -11
89 -14 92 -10 11 -46 -59 -53 -103 -6 -44 -2 -113 11 -149 6 -19 1 -24 -29
-34 -73 -24 -103 13 -113 140 -3 45 -9 83 -13 85 -13 8 -31 -22 -46 -77 -18
-69 -18 -116 2 -153 14 -27 14 -30 -2 -42 -21 -15 -90 -17 -99 -3 -3 5 -25 -6
-49 -24 -112 -85 -296 -69 -296 25 0 18 9 35 26 48 27 21 64 28 64 13 0 -20
43 -52 69 -52 36 0 65 31 56 59 -8 25 -44 46 -111 62 -109 27 -166 81 -150
143 25 99 224 179 309 123 35 -22 37 -69 5 -91 -30 -21 -51 -20 -73 4 -33 37
-115 18 -115 -26 0 -25 38 -53 97 -70 32 -9 75 -25 96 -35 l37 -19 0 42 c0 24
-4 60 -9 81 l-9 38 51 -3 c46 -3 53 -6 65 -31 l14 -28 27 44 c34 53 76 87 107
87 25 0 54 -34 54 -64 0 -14 8 -7 29 25 54 85 120 122 150 85z m1311 -276 c24
-24 24 -29 4 -58 -19 -28 -45 -28 -62 -1 -16 25 -60 23 -76 -4 -16 -26 20 -53
83 -61 152 -20 146 -164 -9 -210 -67 -20 -97 -20 -134 -1 -16 9 -30 14 -31 13
-38 -68 -91 -97 -172 -98 -42 0 -58 5 -84 27 l-33 28 7 -25 c20 -72 21 -68
-18 -79 -69 -19 -104 18 -106 113 -1 23 -4 52 -8 66 -6 21 -8 22 -14 8 -8 -22
-30 -23 -47 -3 -17 21 -47 19 -60 -4 -15 -28 -12 -108 5 -174 8 -32 15 -59 15
-61 0 -2 -13 -9 -30 -16 -39 -16 -78 -5 -92 25 l-11 25 -24 -39 c-29 -49 -91
-81 -157 -81 -58 0 -99 22 -123 67 l-18 33 -17 -50 c-21 -64 -52 -106 -88
-125 -68 -35 -130 -6 -154 73 l-15 47 0 -43 c-1 -23 6 -58 14 -77 13 -34 13
-36 -10 -51 -14 -9 -37 -14 -53 -12 -16 2 -34 -2 -41 -9 -33 -35 -101 -27
-121 14 -12 25 -14 26 -18 8 -9 -43 -52 -84 -106 -101 -65 -20 -113 -13 -156
22 -33 28 -36 24 -18 -26 9 -29 9 -35 -7 -47 -25 -17 -79 -17 -94 1 -7 8 -16
27 -20 43 -8 28 -8 28 -21 -15 -20 -65 -50 -92 -102 -92 -53 0 -82 19 -108 70
-39 77 -17 199 45 248 47 37 96 47 135 27 l33 -17 -7 68 c-4 38 -9 79 -12 91
-5 18 -1 23 21 29 69 17 103 -28 105 -141 1 -59 1 -59 14 -30 41 92 183 147
249 95 69 -55 28 -148 -90 -205 l-48 -23 27 -12 c37 -17 91 -5 127 29 17 16
33 26 36 23 3 -3 3 19 1 49 -3 29 -8 92 -11 138 -6 81 -17 148 -31 185 -6 15
0 17 47 14 51 -3 55 -1 69 27 12 24 22 31 51 33 66 6 91 -47 44 -94 -20 -20
-32 -24 -55 -19 -30 7 -35 1 -24 -29 7 -19 50 -21 105 -5 29 9 45 9 68 -1 32
-13 43 -36 60 -130 5 -30 14 -66 19 -79 8 -23 9 -23 25 17 24 59 39 167 31
220 l-7 45 44 -6 c24 -3 49 -13 55 -22 11 -15 18 -11 61 33 75 78 177 94 223
35 24 -31 26 -63 5 -104 -19 -35 -85 -85 -126 -94 -32 -7 -30 -21 6 -35 33
-12 84 4 123 41 l33 30 -9 112 c-5 62 -7 116 -5 120 6 10 68 5 95 -7 11 -5 18
-1 23 14 10 32 68 56 100 42 22 -10 25 -9 25 8 0 17 7 20 50 20 39 0 52 -4 60
-20 10 -18 14 -16 58 29 72 75 164 91 219 39 22 -21 23 -21 23 -2 0 45 110
113 183 114 24 0 44 -7 57 -20z m-684 -800 c19 -63 33 -129 32 -146 -1 -19 5
-38 15 -48 23 -24 22 -56 -2 -56 -10 0 -24 7 -31 15 -15 18 -69 20 -104 4 -30
-14 -51 -60 -42 -95 5 -17 3 -23 -4 -19 -5 3 -10 13 -10 22 0 8 -6 13 -12 11
-41 -16 -239 -70 -242 -67 -1 2 -26 84 -55 183 -34 116 -49 182 -43 188 16 16
404 127 436 125 28 -2 30 -6 62 -117z m-465 -220 c21 -74 38 -143 39 -152 0
-22 -13 -23 -30 -3 -18 22 -92 19 -121 -4 -19 -15 -24 -28 -23 -63 1 -42 0
-44 -24 -40 -24 5 -25 5 -6 20 18 13 17 14 -8 10 -26 -5 -29 -1 -45 51 -33
106 -15 221 43 272 19 16 110 49 128 45 5 -1 26 -62 47 -136z m439 -50 c11
-11 20 -25 20 -32 0 -17 -31 -48 -48 -48 -20 0 -52 29 -52 47 0 15 35 53 50
53 6 0 19 -9 30 -20z m-459 -141 c18 -34 -3 -69 -41 -69 -42 0 -62 40 -35 70
24 26 61 26 76 -1z m95 5 c-22 -8 -41 -12 -44 -9 -3 2 1 7 9 9 8 2 21 7 29 9
36 12 41 4 6 -9z"/>
<path d="M2070 2395 c-34 -36 -36 -133 -4 -166 47 -47 89 10 89 121 l0 65 -30
3 c-23 2 -37 -4 -55 -23z"/>
<path d="M1723 2305 c-44 -31 -53 -121 -17 -173 37 -53 79 -13 97 92 9 51 8
68 -2 80 -17 20 -50 20 -78 1z"/>
<path d="M2454 1883 c-28 -19 -49 -113 -25 -113 14 0 73 44 85 63 20 32 -27
72 -60 50z"/>
<path d="M2610 1849 c0 -29 -78 -103 -124 -119 -42 -13 -46 -27 -12 -40 35
-13 85 4 131 46 54 49 86 60 102 38 7 -10 13 -21 13 -26 0 -16 61 -8 67 8 11
28 -12 49 -67 61 -29 6 -66 21 -82 33 l-28 21 0 -22z"/>
<path d="M1794 1693 c-28 -19 -49 -113 -25 -113 14 0 73 44 85 63 20 32 -27
72 -60 50z"/>
<path d="M977 1450 c-16 -13 -28 -35 -32 -61 -8 -48 -4 -54 27 -39 60 32 85
79 56 108 -16 16 -21 15 -51 -8z"/>
<path d="M631 1344 c-43 -55 -34 -154 16 -177 22 -10 28 -8 43 11 26 32 47
156 30 177 -20 24 -66 19 -89 -11z"/>
</g>
</svg>
